HIERARCHY
ROOT root
{
	OFFSET 0.000000 0.000000 0.000000
	CHANNELS 6 Xposition Yposition Zposition Zrotation Yrotation Xrotation
	JOINT lhip
	{
		OFFSET 0.058581 -0.082280 -0.017664
		CHANNELS 3 Zrotation Yrotation Xrotation
		JOINT lknee
		{
			OFFSET 0.043451 -0.386469 0.008037
			CHANNELS 3 Zrotation Yrotation Xrotation
			JOINT lankle
			{
				OFFSET -0.014790 -0.426874 -0.037428
				CHANNELS 3 Zrotation Yrotation Xrotation
				JOINT ltoe
				{
					OFFSET 0.041054 -0.060286 0.122042
					CHANNELS 3 Zrotation Yrotation Xrotation
					End Site
					{
						OFFSET 0.000000 0.000000 0.000000
					}
				}
			}
		}
	}
	JOINT rhip
	{
		OFFSET -0.060310 -0.090513 -0.013543
		CHANNELS 3 Zrotation Yrotation Xrotation
		JOINT rknee
		{
			OFFSET -0.043257 -0.383688 -0.004843
			CHANNELS 3 Zrotation Yrotation Xrotation
			JOINT rankle
			{
				OFFSET 0.019056 -0.420046 -0.034562
				CHANNELS 3 Zrotation Yrotation Xrotation
				JOINT rtoe
				{
					OFFSET -0.034840 -0.062106 0.130323
					CHANNELS 3 Zrotation Yrotation Xrotation
					End Site
					{
						OFFSET 0.000000 0.000000 0.000000
					}
				}
			}
		}
	}
	JOINT lowerback
	{
		OFFSET 0.004439 0.124404 -0.038385
		CHANNELS 3 Zrotation Yrotation Xrotation
		JOINT upperback
		{
			OFFSET 0.004488 0.137956 0.026820
			CHANNELS 3 Zrotation Yrotation Xrotation
			JOINT chest
			{
				OFFSET -0.002265 0.056032 0.002855
				CHANNELS 3 Zrotation Yrotation Xrotation
				JOINT lowerneck
				{
					OFFSET -0.013390 0.211636 -0.033468
					CHANNELS 3 Zrotation Yrotation Xrotation
					JOINT upperneck
					{
						OFFSET 0.010113 0.088937 0.050410
						CHANNELS 3 Zrotation Yrotation Xrotation
						End Site
						{
							OFFSET 0.000000 0.000000 0.000000
						}
					}
				}
				JOINT lclavicle
				{
					OFFSET 0.071702 0.114000 -0.018898
					CHANNELS 3 Zrotation Yrotation Xrotation
					JOINT lshoulder
					{
						OFFSET 0.122921 0.045205 -0.019046
						CHANNELS 3 Zrotation Yrotation Xrotation
						JOINT lelbow
						{
							OFFSET 0.255332 -0.015649 -0.022946
							CHANNELS 3 Zrotation Yrotation Xrotation
							JOINT lwrist
							{
								OFFSET 0.265709 0.012698 -0.007375
								CHANNELS 3 Zrotation Yrotation Xrotation
								End Site
								{
									OFFSET 0.000000 0.000000 0.000000
								}
							}
						}
					}
				}
				JOINT rclavicle
				{
					OFFSET -0.082954 0.112472 -0.023707
					CHANNELS 3 Zrotation Yrotation Xrotation
					JOINT rshoulder
					{
						OFFSET -0.113228 0.046853 -0.008472
						CHANNELS 3 Zrotation Yrotation Xrotation
						JOINT relbow
						{
							OFFSET -0.260127 -0.014369 -0.031269
							CHANNELS 3 Zrotation Yrotation Xrotation
							JOINT rwrist
							{
								OFFSET -0.269108 0.006794 -0.006027
								CHANNELS 3 Zrotation Yrotation Xrotation
								End Site
								{
									OFFSET 0.000000 0.000000 0.000000
								}
							}
						}
					}
				}
			}
		}
	}
}
MOTION
Frames: 16
Frame Time: 0.033333
0.701751 0.716438 1.111480 -86.933996 -1.202484 107.694441 0.303298 4.402645 6.750586 1.400743 -2.115571 0.548929 -6.207099 21.091304 37.089807 0.000000 -0.000000 0.000000 -1.486407 -10.592901 5.691938 -1.782345 -0.956324 5.402154 10.124867 -19.890705 39.613243 0.000000 -0.000000 0.000000 -4.110851 5.304442 3.991833 0.156732 -9.447692 3.737556 4.037209 -1.096615 -5.132200 -5.402017 -4.466516 7.942871 11.430384 4.004699 -26.677883 27.536834 -31.030351 -19.880605 46.933953 -7.397126 -32.321029 1.216278 -9.538827 -40.970896 -10.516666 -10.135119 12.885430 -29.641761 26.642770 -23.317233 -25.182485 18.357898 -31.298292 -26.017559 17.950737 -42.866265 1.512167 3.611614 2.972912 
0.647289 0.713762 1.151157 -85.784505 -1.530335 107.196646 -0.190318 2.284818 5.247547 -0.321313 -3.963338 0.664399 -5.786770 20.814498 40.423242 0.000000 -0.000000 0.000000 -0.952250 -9.144063 4.437656 -0.203638 -0.526513 5.306759 9.605284 -19.958084 41.542157 0.000000 -0.000000 0.000000 -3.590481 5.028566 5.945798 0.270894 -9.317337 1.991308 3.840671 -1.328160 -4.266611 -5.637981 -4.918342 7.429405 12.065246 3.324961 -26.276527 26.402189 -28.819842 -17.217306 44.584973 -1.688249 -30.892420 1.815327 -7.234310 -44.893874 -7.489813 -9.721651 12.821699 -28.328294 25.231577 -21.624745 -22.727982 14.197327 -32.153999 -28.458273 15.450121 -48.507918 -0.621832 5.136660 0.341454 
0.600853 0.713560 1.183887 -85.148585 -1.560072 105.326455 -1.052430 2.762647 3.066232 1.080162 -4.242549 -0.671565 -3.930234 21.222354 38.955892 0.000000 -0.000000 0.000000 -0.526838 -9.579694 1.292157 -0.119011 -1.102456 7.137347 8.046319 -20.184624 40.668409 0.000000 -0.000000 0.000000 -2.346066 4.566655 11.240263 -0.091650 -8.524688 -0.772404 4.013125 -1.202064 -2.021625 -6.268717 -6.208247 6.140450 12.446200 2.714290 -25.667122 23.851522 -25.981032 -16.047738 40.188913 2.355835 -30.188870 3.482876 -6.427707 -46.566082 -8.027322 -7.766865 12.690342 -25.596545 24.702585 -19.860238 -21.272863 10.623851 -33.065108 -27.607289 14.022705 -49.836497 -2.834422 4.168842 3.482298 
0.558459 0.714023 1.207353 -85.929359 -0.706835 103.558324 -0.780417 4.469384 -1.079571 1.367953 -1.326625 -0.632617 -3.640873 21.356903 36.523963 0.000000 -0.000000 0.000000 0.168525 -10.590198 -3.218255 -0.209252 -2.144124 6.881815 7.704838 -18.554715 38.670141 0.000000 -0.000000 0.000000 -0.238804 4.086524 16.552310 -1.164591 -7.635742 -2.768001 3.988206 -0.825855 -0.254688 -7.585028 -7.241582 6.162521 13.373135 3.326496 -24.598300 21.484381 -24.357602 -15.049739 33.591575 4.400278 -30.969620 6.716052 -5.352933 -49.164738 -5.503157 -7.741788 12.003358 -23.203788 25.554185 -16.834260 -18.911034 8.708211 -34.783712 -23.452782 12.633021 -47.033633 -3.775698 3.885402 6.168641 
0.519635 0.714593 1.221961 -88.334040 0.098540 102.654021 -0.557257 4.354247 -6.890095 0.989721 1.556931 0.276094 -3.762328 19.580382 35.673877 0.000000 -0.000000 0.000000 1.271965 -10.678440 -10.191533 -0.627123 -3.145971 5.870907 7.563127 -15.945054 36.813367 0.000000 -0.000000 0.000000 1.046077 4.463394 20.984460 -2.465275 -6.462305 -3.312773 4.035008 -0.365745 0.206520 -9.125103 -7.306599 6.707876 14.245088 3.982546 -24.352014 19.525569 -23.027223 -14.137066 25.635412 3.065252 -32.264010 9.985998 -6.398383 -51.578263 -5.723332 -7.208760 6.377069 -21.636292 26.385455 -13.518505 -14.687822 10.836888 -35.897081 -20.881263 11.370112 -43.777855 -4.182247 3.269821 6.449220 
0.484097 0.712899 1.227391 -91.484002 0.383090 101.888337 -0.669358 3.245318 -13.347487 0.889729 5.603407 0.966609 -2.874045 18.590308 34.325883 0.000000 -0.000000 0.000000 1.990305 -8.403273 -18.576977 -0.802802 -4.420060 5.288235 8.111911 -14.515847 36.739425 0.000000 -0.000000 0.000000 1.150361 4.803995 25.459934 -3.877356 -4.425075 -2.431467 3.781043 0.696277 -0.595220 -9.924004 -7.547402 6.692808 15.379751 4.290234 -24.616988 17.707919 -23.243998 -14.412861 20.103352 -0.828839 -31.893969 10.969855 -8.179009 -49.293717 -7.087233 -6.597705 6.777528 -19.622849 27.848597 -10.193001 -10.711589 13.576916 -34.978810 -19.393922 12.698290 -40.889297 -4.443161 2.971093 5.887333 
0.449123 0.711658 1.221330 -93.274343 0.241371 101.444767 -0.110345 1.217073 -21.307261 0.901148 9.294084 3.877816 -1.879470 17.386743 33.308988 0.000000 -0.000000 0.000000 3.069103 -6.461740 -26.353269 -1.471510 -8.051463 2.741248 9.397955 -13.645546 35.684738 0.000000 -0.000000 0.000000 0.711076 4.767359 29.532480 -4.914774 -3.023440 -1.330800 3.793227 1.726186 -1.374287 -9.650642 -6.832354 4.495662 15.845706 3.464950 -24.720186 17.938609 -23.249953 -15.120828 13.487860 -6.254565 -29.430079 11.582496 -10.339829 -42.402497 -8.179548 -7.336649 4.542258 -18.707116 29.483386 -8.550825 -6.655014 18.352042 -32.939456 -18.985374 14.373585 -33.547629 -2.787390 3.064467 5.036041 
0.410788 0.710329 1.201635 -93.724922 -0.079990 100.216107 0.922785 -0.907546 -28.166377 0.782377 11.349521 6.661165 -3.416653 15.675115 30.552203 0.000000 -0.000000 0.000000 3.995337 -5.046842 -30.770090 -2.230504 -10.933423 -1.955916 10.648101 -12.746978 35.493291 0.000000 -0.000000 0.000000 0.726084 4.746176 34.606857 -5.595627 -2.654272 -1.703254 3.686114 2.621723 -1.102610 -9.451917 -6.754762 1.959024 16.911690 2.399098 -24.959806 18.664376 -22.885738 -14.958203 6.798193 -11.069682 -24.738514 13.240429 -15.932078 -34.787219 -8.458180 -9.566879 1.047321 -18.640024 29.943477 -7.747859 -1.250262 22.100587 -28.870613 -18.118547 18.535338 -23.945627 0.175901 3.117085 4.171120 
0.366645 0.709962 1.167642 -93.277587 -1.011293 97.953620 1.456592 -3.008963 -32.949360 0.101562 11.622105 7.499086 -3.455480 14.322405 28.468704 0.000000 -0.000000 0.000000 3.349009 -4.664837 -33.695999 -2.438309 -10.730965 -0.379945 10.513439 -12.833907 36.369362 0.000000 -0.000000 0.000000 0.634980 4.936557 39.442120 -6.012310 -2.331406 -2.252884 3.374283 2.469821 0.376697 -8.828585 -7.069956 -0.931426 17.361024 1.926403 -24.223566 17.172169 -20.422480 -13.952656 1.530872 -14.092081 -18.154566 16.037513 -30.542438 -25.158209 -6.135405 -11.399926 -1.856586 -17.244026 29.165041 -7.612348 5.424746 24.913022 -22.430589 -17.317802 22.812557 -19.206060 0.863185 3.810630 2.609432 
0.314099 0.709144 1.119753 -91.604475 -1.947302 95.455394 1.477490 -4.608771 -36.579910 -0.546704 11.646868 7.294096 -4.083174 11.863494 20.704716 0.000000 -0.000000 0.000000 1.521245 -5.552804 -34.936878 -1.859780 -10.099775 7.428394 11.965318 -11.289465 37.758692 0.000000 -0.000000 0.000000 0.646325 5.604588 41.784408 -5.377957 -2.116574 -1.429188 3.407698 2.125099 1.201929 -8.053273 -7.544667 -2.414808 17.429296 0.636412 -22.778566 14.383790 -17.407412 -12.424604 -6.524211 -16.221355 -10.974044 20.305595 -49.301794 -18.179160 -6.711254 -14.058350 -2.536304 -13.350749 27.300229 -6.222227 15.130420 24.946023 -15.217576 -17.555848 28.154471 -17.853936 4.555210 4.630405 4.280150 
0.252704 0.708974 1.061359 -89.898116 -1.680951 91.267626 2.774423 -6.029060 -37.569005 -1.574869 9.314011 8.669776 -3.700299 8.920410 9.193933 0.000000 -0.000000 0.000000 -0.340024 -5.136288 -31.890605 -0.182091 -8.987783 18.281313 13.281573 -9.277032 38.105424 0.000000 -0.000000 0.000000 1.096461 6.484737 43.934196 -4.178298 -1.739438 0.296041 4.152798 2.000121 1.323044 -7.363938 -7.974989 -2.352355 16.938136 0.419822 -22.694569 9.142393 -14.934597 -9.654837 -16.037996 -14.716711 -0.515877 22.071913 -65.377321 -17.056768 -4.044243 -15.179473 -7.230618 -4.855352 24.359812 -3.788067 24.915448 20.910860 -7.097711 -17.044621 34.664220 -21.128553 3.422849 4.965717 7.793079 
0.186858 0.712090 0.992513 -89.104112 0.277526 87.319690 5.356211 -4.809286 -41.293070 -3.787248 4.537447 20.157422 -3.770670 6.617991 3.132095 0.000000 -0.000000 0.000000 1.096834 -2.612316 -27.897823 1.941509 -5.364428 33.799441 5.049289 -0.399017 1.064963 0.000000 -0.000000 0.000000 2.459990 6.928813 45.455758 -2.647075 -1.688633 1.149153 3.838986 1.413159 1.767039 -4.975998 -3.587938 -5.703849 15.002000 -3.786251 -20.752105 1.140298 -12.555966 -7.237955 -28.970083 -8.059191 4.975216 13.521094 -71.975381 -3.653301 -5.760766 -14.834567 -12.466171 4.004185 21.184221 -1.576015 36.810158 13.829759 -3.053222 -14.987601 40.302753 -14.199739 2.559345 6.306143 5.609773 
0.123464 0.715659 0.920012 -91.034276 3.486012 83.361320 8.165971 -0.421895 -45.959138 -5.071509 4.091534 39.349299 -3.352873 4.309189 -4.940546 0.000000 -0.000000 0.000000 6.826335 -0.204863 -23.879756 -2.387998 -6.407429 45.463297 -6.236387 -5.006855 -29.778162 0.000000 -0.000000 0.000000 3.513774 6.263486 49.027604 -2.560664 -0.804081 -1.259113 3.356975 0.916558 5.614793 -1.669440 0.421552 -14.884853 12.875046 -6.245042 -16.295210 -8.636368 -8.488807 -7.285090 -38.193755 -0.395827 6.077745 1.076030 -66.411586 10.452322 -9.400532 -11.195407 -11.561778 11.917565 17.506559 -1.341342 45.986977 7.173532 0.906978 -11.309978 42.218685 -5.294649 3.246455 5.367280 3.835680 
0.073491 0.711091 0.868841 -93.002344 4.714839 85.854819 12.189529 -2.171667 -48.365284 -6.127851 7.379066 39.760268 -2.493943 4.215518 -5.185632 0.000000 -0.000000 0.000000 5.997229 8.093379 -33.523907 -2.833109 -9.119116 65.106527 -4.494978 -10.598986 -31.788510 0.000000 -0.000000 0.000000 -0.642692 4.431722 48.701389 -1.760660 1.238656 2.047267 2.191379 0.721507 1.304305 0.814988 2.781298 -20.019820 11.962718 -4.723918 -17.368345 -20.133820 -5.921474 -2.769447 -41.263626 0.935817 5.141610 6.162383 -51.446296 2.261697 -11.444976 -8.998762 -9.106199 20.267764 14.632220 3.109986 50.639105 6.107355 7.205976 -11.953458 36.404624 -1.245305 4.849097 3.746291 2.847619 
0.030404 0.706095 0.832581 -91.757235 3.504120 86.251097 10.357093 -3.539181 -56.139389 -5.216469 7.741663 55.833887 2.252747 4.336591 -8.218146 0.000000 -0.000000 0.000000 4.588456 8.300515 -35.883049 -3.927624 -9.925220 76.361883 -6.438391 -13.003060 -32.221474 0.000000 -0.000000 0.000000 -2.698220 4.026269 54.873950 -2.341016 -0.857937 -0.837290 1.688406 0.183847 1.195969 2.115517 3.942769 -26.394060 13.885853 -3.613089 -16.592512 -22.050649 -9.805457 -0.622524 -47.662368 0.173116 2.766044 9.337826 -37.385838 2.041425 -13.674057 -5.275165 -3.972940 20.025169 15.903758 3.907232 61.692362 4.647844 8.044589 -14.308167 27.967265 -0.582012 9.449605 0.493939 2.683576 
0.001065 0.700738 0.810363 -88.690319 0.930909 89.602663 11.853050 -8.025643 -62.747735 -7.051840 13.115672 61.348071 4.922205 5.744058 -10.591285 0.000000 -0.000000 0.000000 -1.091212 4.914739 -45.881879 -6.891078 -10.593523 90.874131 -3.313404 -7.054222 -20.994271 0.000000 -0.000000 0.000000 -2.191102 4.898211 57.411536 -1.525519 -3.473587 -2.802360 1.986429 -1.366288 2.326960 0.290624 3.751886 -29.143989 14.195463 -4.073181 -17.658629 -20.779366 -17.457772 1.165804 -54.934611 -4.978205 4.200384 13.066942 -28.365600 -2.089344 -15.521789 -2.888781 -3.059826 17.877010 18.381480 4.411221 66.985828 4.527811 8.505727 -16.192747 24.784444 -1.730282 11.728717 -1.727175 1.443339 
